<svg width="41" height="41" viewBox="0 0 41 41" fill="none" xmlns="http://www.w3.org/2000/svg">
<path d="M35 20.4706C34.2055 1.17654 6.79439 1.17635 6 20.4707C6.0459 33.8758 22.6239 40.0348 31.3544 30.1003C33.7045 27.4468 35.0018 24.0201 35 20.4706ZM29.7398 26.3583C29.7378 25.857 29.8449 25.3612 30.0534 24.9056C30.2619 24.4499 30.5669 24.0454 30.9472 23.72C31.3274 23.3947 31.7738 23.1563 32.2552 23.0217C32.7366 22.887 33.2415 22.8591 33.7347 22.9401C33.3239 25.1577 32.3639 27.2361 30.9431 28.9843C30.5652 28.6599 30.262 28.2571 30.0542 27.8038C29.8465 27.3504 29.7392 26.8573 29.7398 26.3583ZM20.5 33.9775C2.64092 33.2372 2.64006 7.70412 20.5001 6.96372C22.3878 6.9692 24.2534 7.37181 25.9764 8.14555C27.6994 8.91929 29.2414 10.0469 30.5029 11.4557C31.7644 12.8645 32.7174 14.523 33.3002 16.3242C33.8831 18.1254 34.0828 20.0292 33.8866 21.9126C29.4631 21.2065 26.874 26.8495 30.2582 29.7625C29.0031 31.0942 27.4903 32.1548 25.8124 32.8796C24.1345 33.6044 22.3268 33.978 20.5 33.9775Z" fill="white"/>
<path d="M17.5812 10.9307C16.5374 9.88335 14.3338 10.5155 12.4548 12.3999C7.91682 17.1808 12.0764 20.2243 16.1167 16.0733C17.9954 14.1885 18.625 11.9776 17.5812 10.9307ZM11.7225 16.808C11.2041 16.2878 11.7202 14.6062 13.187 13.1345C14.4168 11.9753 15.8999 11.0591 16.8489 11.6652C18.079 13.3286 13.3762 18.0423 11.7225 16.808Z" fill="white"/>
<path d="M20.7632 27.3935C14.575 27.4415 14.5755 32.5407 20.7633 32.5885C26.9515 32.5405 26.9509 27.4413 20.7632 27.3935ZM20.7632 31.5495C18.6885 31.5495 17.1382 30.7266 17.1382 29.991C17.1382 29.2554 18.6885 28.4325 20.7632 28.4325C22.8379 28.4325 24.3882 29.2554 24.3882 29.991C24.3882 30.7266 22.8379 31.5495 20.7632 31.5495Z" fill="white"/>
<path d="M24.6429 14.0033C21.0021 14.1192 21.0029 19.4152 24.6429 19.5306C28.2837 19.4146 28.2828 14.1187 24.6429 14.0033ZM24.6429 18.4916C24.19 18.4869 23.7572 18.3031 23.4386 17.9802C23.12 17.6573 22.9412 17.2213 22.9412 16.7669C22.9413 16.3125 23.12 15.8765 23.4386 15.5536C23.7572 15.2307 24.19 15.0469 24.6429 15.0423C25.0958 15.047 25.5286 15.2307 25.8472 15.5537C26.1658 15.8766 26.3445 16.3126 26.3445 16.767C26.3445 17.2213 26.1658 17.6573 25.8472 17.9802C25.5285 18.3032 25.0958 18.4869 24.6429 18.4916Z" fill="white"/>
<path d="M14.5136 22.0291C14.378 22.0318 14.2488 22.0877 14.1539 22.1848C14.0589 22.2819 14.0057 22.4126 14.0057 22.5486C14.0057 22.6847 14.0589 22.8153 14.1539 22.9124C14.2489 23.0096 14.378 23.0654 14.5136 23.0681C14.6492 23.0654 14.7783 23.0095 14.8733 22.9124C14.9683 22.8153 15.0215 22.6846 15.0214 22.5486C15.0214 22.4125 14.9682 22.2819 14.8733 22.1848C14.7783 22.0876 14.6492 22.0318 14.5136 22.0291Z" fill="white"/>
<path d="M20.5 21.6135C20.5026 21.7495 20.5584 21.8791 20.6552 21.9744C20.752 22.0696 20.8822 22.123 21.0179 22.123C21.1535 22.123 21.2837 22.0696 21.3805 21.9744C21.4773 21.8791 21.5331 21.7495 21.5357 21.6135C21.5331 21.4775 21.4773 21.3479 21.3805 21.2527C21.2837 21.1574 21.1535 21.104 21.0179 21.104C20.8822 21.104 20.752 21.1574 20.6552 21.2527C20.5584 21.3479 20.5026 21.4775 20.5 21.6135Z" fill="white"/>
<path d="M13.4779 28.2631C13.3423 28.2657 13.2131 28.3216 13.1182 28.4188C13.0232 28.5159 12.97 28.6465 12.97 28.7826C12.97 28.9186 13.0232 29.0492 13.1182 29.1464C13.2131 29.2435 13.3423 29.2994 13.4779 29.302C13.6135 29.2994 13.7426 29.2435 13.8376 29.1464C13.9325 29.0492 13.9857 28.9186 13.9857 28.7825C13.9857 28.6465 13.9325 28.5159 13.8376 28.4187C13.7426 28.3216 13.6135 28.2657 13.4779 28.2631Z" fill="white"/>
<path d="M20.5 13.1977C20.6356 13.195 20.7647 13.1391 20.8597 13.042C20.9547 12.9448 21.0078 12.8142 21.0078 12.6782C21.0078 12.5421 20.9546 12.4115 20.8597 12.3144C20.7647 12.2172 20.6356 12.1613 20.5 12.1587C20.3644 12.1613 20.2352 12.2172 20.1403 12.3144C20.0453 12.4115 19.9921 12.5421 19.9921 12.6782C19.9921 12.8142 20.0453 12.9449 20.1403 13.042C20.2353 13.1391 20.3644 13.195 20.5 13.1977Z" fill="white"/>
<path d="M29.5107 17.8059C29.6463 17.8033 29.7755 17.7474 29.8704 17.6502C29.9654 17.5531 30.0186 17.4225 30.0186 17.2864C30.0186 17.1504 29.9654 17.0197 29.8704 16.9226C29.7754 16.8255 29.6463 16.7696 29.5107 16.7669C29.3751 16.7696 29.2459 16.8255 29.151 16.9226C29.056 17.0198 29.0028 17.1504 29.0028 17.2864C29.0028 17.4225 29.056 17.5531 29.151 17.6502C29.246 17.7474 29.3751 17.8033 29.5107 17.8059Z" fill="white"/>
<path d="M25.865 25.3331C25.7294 25.3357 25.6001 25.3916 25.5051 25.4887C25.4101 25.5858 25.3569 25.7165 25.3569 25.8526C25.3569 25.9887 25.4101 26.1194 25.5051 26.2165C25.6002 26.3136 25.7294 26.3695 25.865 26.3721C26.0007 26.3695 26.1299 26.3136 26.2249 26.2165C26.3199 26.1193 26.3731 25.9887 26.3731 25.8526C26.3731 25.7165 26.3199 25.5858 26.2249 25.4887C26.1299 25.3915 26.0006 25.3357 25.865 25.3331Z" fill="white"/>
<path d="M9.00357 18.4917C8.86798 18.4943 8.73883 18.5502 8.64387 18.6473C8.54891 18.7445 8.49572 18.8751 8.49573 19.0112C8.49573 19.1472 8.54893 19.2778 8.64389 19.375C8.73885 19.4721 8.86801 19.528 9.0036 19.5306C9.1392 19.528 9.26835 19.4721 9.3633 19.3749C9.45826 19.2778 9.51145 19.1472 9.51145 19.0111C9.51144 18.8751 9.45825 18.7445 9.36328 18.6473C9.26832 18.5502 9.13917 18.4943 9.00357 18.4917Z" fill="white"/>
</svg>
