<svg width="41" height="41" viewBox="0 0 41 41" fill="none" xmlns="http://www.w3.org/2000/svg">
<path fill-rule="evenodd" clip-rule="evenodd" d="M12.9081 6.45096C13.1477 6.40771 13.3941 6.45561 13.6016 6.58644C13.8282 6.72847 13.9869 6.95348 14.0478 7.21879L14.8213 10.5607C14.8628 10.7409 14.9682 10.8969 15.1182 11.0007C15.6901 11.3957 16.466 11.9356 16.9118 12.2632C17.1218 12.4178 17.3504 12.5286 17.5907 12.592C17.6862 12.6171 17.8545 12.6537 18.0802 12.7007C18.0027 12.445 17.9516 12.1686 17.928 11.8775C17.8826 11.3141 17.9459 10.7263 18.1065 10.2231C18.1369 10.129 18.1696 10.0384 18.2049 9.95366C18.6904 8.78649 19.7377 8.31035 20.9385 8.71151C21.5392 8.91227 21.9953 9.27341 22.2568 9.75638C22.5436 10.287 22.5769 10.9389 22.3524 11.6418C22.1335 12.3276 21.6963 12.9896 21.1789 13.4597C21.8856 13.6639 22.5853 13.8806 22.9165 14.0732C23.2938 14.2934 23.6139 14.587 23.8679 14.9463C24.3552 15.6363 24.9771 16.5201 25.3422 17.0489L26.5115 15.1576C26.699 14.8545 27.0208 14.6733 27.3717 14.6733C27.4235 14.6733 27.4767 14.6775 27.5298 14.6857C27.6799 14.7099 27.8195 14.767 27.9453 14.8553C28.3047 15.1065 28.4681 15.5643 28.35 15.994C28.3321 16.0614 28.3054 16.1305 28.2716 16.1961L26.42 19.8236C26.234 20.1877 25.9017 20.4421 25.5074 20.5214C25.1131 20.6007 24.7113 20.4944 24.4044 20.2295L22.653 18.7176L22.7421 21.8239C22.7576 22.3566 22.9449 22.8793 23.2698 23.2956L26.9862 28.0554C27.3107 28.4713 27.5716 28.9339 27.7608 29.4303L29.4018 33.734C29.4079 33.7499 29.4133 33.766 29.4187 33.7821C29.5076 33.695 29.5915 33.6067 29.6677 33.5132C29.8182 33.3287 30.0401 33.2097 30.2765 33.1863L30.344 33.9039C30.2908 33.9089 30.2414 33.9351 30.209 33.9751C30.0117 34.2169 29.7853 34.4209 29.5662 34.6184C29.4207 34.7496 29.2832 34.8737 29.156 35.006C28.9697 35.1995 28.656 35.5863 28.6464 36L27.9423 35.9836C27.947 35.7749 27.9954 35.5597 28.0838 35.3454C27.7577 35.2793 27.4607 35.0743 27.2876 34.7609L25.1124 30.8259C24.9968 30.6168 24.8416 30.4397 24.6517 30.2995L19.7917 26.7134C18.7061 26.753 17.619 26.5795 16.5979 26.2067C16.613 26.2817 16.6207 26.359 16.6207 26.4369C16.6207 26.6971 16.5326 26.9519 16.3723 27.1545C16.0076 27.6159 15.3476 27.7132 14.8701 27.3758L11.0391 24.6684C10.4747 24.2693 10.1378 23.6118 10.1377 22.9089C10.1377 22.5614 10.2221 22.2153 10.3817 21.9082C10.8384 21.0283 11.8152 20.5904 12.7574 20.8439L15.982 21.71C15.9874 21.7115 16.0013 21.7149 16.0163 21.7021C16.0315 21.6888 16.03 21.673 16.0297 21.668L15.4289 15.6585C15.401 15.3798 15.2898 15.1225 15.1073 14.9138L13.1118 12.6319C12.8377 12.319 12.664 11.9329 12.6093 11.5158L12.095 7.58778C12.089 7.54455 12.0861 7.49846 12.0861 7.452C12.0861 6.95781 12.4317 6.53677 12.9081 6.45096ZM12.5782 21.5413C11.9542 21.3734 11.3071 21.6635 11.0044 22.2468C10.8987 22.4504 10.8431 22.6793 10.8431 22.9092C10.8431 23.3753 11.0665 23.8111 11.4403 24.0753L15.2707 26.7828C15.4469 26.9071 15.6901 26.8716 15.8248 26.7015C15.9005 26.6056 15.9162 26.505 15.9163 26.4372C15.9163 26.3017 15.8553 26.1781 15.749 26.0981L14.749 25.3433L14.7487 25.3439L12.7183 23.8116L13.1367 23.2314L15.1381 24.742L16.0646 25.1993C17.2482 25.7833 18.5679 26.0562 19.8808 25.9888C19.8868 25.9873 19.8927 25.9872 19.8983 25.9872C19.9723 25.9872 20.0444 26.0111 20.1047 26.0554L25.0642 29.7149C25.3369 29.9164 25.5594 30.1706 25.7254 30.4709L27.9009 34.4059C28.02 34.6215 28.2854 34.7091 28.5049 34.6053C28.6705 34.5271 28.7776 34.3563 28.7776 34.1699C28.7776 34.1108 28.7668 34.052 28.7453 33.9958L27.1043 29.6918C26.9408 29.2632 26.7159 28.8638 26.4354 28.5047L22.7196 23.7453C22.3571 23.281 22.1272 22.7141 22.0584 22.125C21.8574 22.1418 21.6554 22.1479 21.3987 22.1499C21.4441 22.8582 21.3792 23.4224 21.2038 23.8308C20.9448 24.4327 20.3549 24.8008 19.6721 24.8008C19.6143 24.8008 19.5559 24.7983 19.4968 24.7929C18.7399 24.724 18.2286 24.0546 18.0577 23.4216C17.9246 22.9287 17.9489 22.4266 18.0017 21.9591C17.446 21.906 17.2142 21.8661 16.7302 21.7475C16.7114 21.9406 16.6212 22.1214 16.4744 22.2498C16.2894 22.4117 16.0386 22.4709 15.8028 22.4075L12.5782 21.5413ZM18.7038 22.023C18.6562 22.4357 18.6344 22.8495 18.7373 23.2298C18.8398 23.6101 19.1413 24.0365 19.5595 24.0747C20.0098 24.1157 20.402 23.9061 20.5592 23.5407C20.6917 23.2325 20.7371 22.7529 20.6927 22.1426C20.0535 22.1214 19.3765 22.0807 18.7038 22.023ZM13.2323 7.20174C13.189 7.17434 13.1195 7.14594 13.0304 7.16216C12.8913 7.18703 12.7909 7.30951 12.7909 7.45291C12.7909 7.46659 12.7915 7.47969 12.7932 7.49157L13.3079 11.4205C13.3435 11.6937 13.4572 11.9465 13.6368 12.1512L15.6323 14.4327C15.9149 14.7553 16.0867 15.154 16.1297 15.5851L16.6698 20.9903C17.4154 21.1787 17.5359 21.1955 18.4278 21.274C18.4287 21.2741 18.4293 21.2743 18.4302 21.2743C19.3051 21.3573 20.1978 21.4113 21.0134 21.4305L21.441 21.4293C21.67 21.427 21.848 21.4203 22.0249 21.4046L21.9281 18.0289C21.9235 17.8703 22.0109 17.7227 22.1508 17.6535C22.291 17.5843 22.4581 17.606 22.5769 17.7083L24.8587 19.6781C25.0013 19.8013 25.1881 19.8506 25.3709 19.8139C25.5538 19.7771 25.7086 19.659 25.7949 19.49L27.6477 15.8618C27.6579 15.842 27.6652 15.8225 27.6705 15.8031C27.7075 15.6683 27.6575 15.528 27.5473 15.4508C27.5082 15.4234 27.4662 15.406 27.4218 15.3988C27.4049 15.3962 27.3879 15.3948 27.3717 15.3948C27.2636 15.3948 27.1644 15.4503 27.107 15.5437L25.8112 17.6401C25.7133 17.7987 25.545 17.8962 25.3617 17.9001C25.1793 17.9041 25.0063 17.8151 24.9013 17.6608C24.5613 17.1627 23.7501 16.0112 23.297 15.3692C23.1025 15.0939 22.8572 14.8687 22.5683 14.7C22.2381 14.5079 21.2405 14.2244 20.5118 14.0175L20.274 13.9502C19.7261 13.7955 19.1689 13.6597 18.6167 13.5462C18.552 13.5325 18.4883 13.5198 18.4246 13.5072C18.0831 13.4402 17.6304 13.3476 17.4151 13.291C17.0896 13.2049 16.7819 13.0564 16.5008 12.8499C16.0617 12.5273 15.2921 11.992 14.7238 11.5995C14.4265 11.3941 14.2176 11.0844 14.1355 10.7276L13.362 7.38562C13.3441 7.30812 13.2982 7.24283 13.2323 7.20174ZM20.7209 9.39713C20.223 9.23095 19.3186 9.11879 18.8542 10.2359C18.8267 10.3018 18.8012 10.3729 18.7772 10.4472C18.6451 10.861 18.5929 11.3484 18.631 11.8184C18.6524 12.0848 18.701 12.3335 18.776 12.5573C18.8137 12.6709 18.8587 12.7761 18.9087 12.8709C18.9258 12.8745 18.9428 12.8785 18.9599 12.8822C19.4032 12.9775 19.849 13.0863 20.2889 13.207C20.3 13.2101 20.3112 13.2131 20.3223 13.2162C20.9009 12.8683 21.4496 12.1494 21.6832 11.4184C21.8478 10.9033 21.8332 10.462 21.6409 10.1059C21.4675 9.78544 21.1493 9.54024 20.7209 9.39713Z" fill="white"/>
<path d="M17.39 33.7818C17.8463 33.5641 18.4062 33.5978 18.8883 33.8728C19.347 34.1341 19.5157 34.7641 19.4455 35.2511L18.7482 35.1457C18.7855 34.8862 18.6909 34.5857 18.5454 34.5027C18.2649 34.3427 17.9362 34.3169 17.6882 34.4354C17.4458 34.5511 17.2854 34.8278 17.3233 35.0656L16.6278 35.1819C16.5386 34.6239 16.8593 34.0352 17.39 33.7818Z" fill="white"/>
<path d="M6.75946 31.5045C7.09245 31.25 7.48738 30.9856 7.95603 31.0743C8.3344 31.1457 8.60143 31.4344 8.77832 31.625C9.09333 31.9653 9.45028 32.3512 9.58136 32.8836L8.89705 33.0596C8.81103 32.71 8.54614 32.4237 8.26605 32.121C8.10965 31.952 7.96872 31.8101 7.82781 31.7834C7.6379 31.7477 7.39434 31.9184 7.18082 32.0817C6.88804 32.3055 6.65685 32.4966 6.57084 32.7421L5.90786 32.4985C6.07242 32.0292 6.46948 31.7258 6.75946 31.5045Z" fill="white"/>
<path d="M32.3774 22.3548C33.0314 22.7744 33.0254 23.682 32.7428 24.3478C32.2907 25.4115 31.2743 26.2099 30.1527 26.3812L30.0488 25.6682C30.9356 25.5326 31.7391 24.9019 32.0964 24.0607C32.2662 23.6609 32.2773 23.1418 32.0028 22.9656L32.3774 22.3548Z" fill="white"/>
<path d="M7.43014 18.0761C7.77508 17.884 8.22124 17.9096 8.59473 18.1428C8.83927 18.296 9.02195 18.513 9.25416 18.836L8.68652 19.2631C8.47369 18.9668 8.35764 18.8396 8.22726 18.7578C8.07294 18.6612 7.88826 18.6416 7.76741 18.709C7.5867 18.8096 7.53398 19.0962 7.57553 19.3146L6.88383 19.4534C6.77461 18.8829 6.99892 18.3162 7.43014 18.0761Z" fill="white"/>
<path d="M33.9977 15.3083C34.4 15.2424 34.803 15.4447 35 15.8116L34.3823 16.1587C34.328 16.0578 34.2186 16.0024 34.109 16.0204C33.9924 16.0395 33.8783 16.0489 33.7673 16.0579C33.5203 16.0781 33.3068 16.0954 33.1905 16.2089C33.1278 16.2702 33.0782 16.3767 33.0395 16.5353C32.9951 16.7173 32.9726 16.9171 32.9465 17.1481C32.9423 17.1949 32.9367 17.2426 32.9311 17.2915L32.2311 17.2066C32.2367 17.1583 32.2422 17.1113 32.2471 17.0659C32.276 16.8097 32.3006 16.588 32.3567 16.3602C32.4028 16.172 32.4889 15.8973 32.7049 15.6868C33.0019 15.397 33.379 15.3665 33.7116 15.3391C33.8131 15.3308 33.9089 15.3227 33.9977 15.3083Z" fill="white"/>
<path d="M5.64462 7.23644C5.76936 7.52512 6.04863 7.73996 6.34491 7.96773C6.55352 8.12814 6.76932 8.29381 6.95608 8.50144C7.44579 9.04573 7.66142 9.83401 7.51838 10.5592C7.45601 10.8739 7.33323 11.1219 7.15388 11.296L6.66885 10.7732C6.74105 10.7029 6.79451 10.5829 6.82727 10.4164C6.92662 9.91359 6.77727 9.36681 6.4376 8.98977C6.2942 8.83047 6.11308 8.69141 5.92178 8.54436C5.56626 8.27114 5.19874 7.98879 5 7.5278L5.64462 7.23644Z" fill="white"/>
<path d="M29.6775 6.31396C30.6447 5.85472 31.5612 5.90152 32.1278 6.4397L31.6484 6.96822C31.2368 6.57752 30.5136 6.71199 29.9742 6.96792C29.3322 7.27287 28.8044 7.7112 28.4472 8.23565C28.0691 8.79077 27.8863 9.4239 27.918 10.0666L27.2139 10.1028C27.1744 9.29905 27.4006 8.51075 27.8689 7.82373C28.2973 7.19474 28.9228 6.67263 29.6775 6.31396Z" fill="white"/>
</svg>
