<svg width="23" height="23" viewBox="0 0 23 23" fill="none" xmlns="http://www.w3.org/2000/svg">
<path d="M4.78246 18.2177C5.68051 19.1157 6.8713 19.6476 8.13048 19.7153C8.23274 19.721 8.33417 19.7243 8.4356 19.7243C9.59918 19.7243 10.7257 19.3277 11.6329 18.5929C12.4345 17.9505 13.1931 17.299 13.8884 16.6566C14.2306 16.3399 14.2521 15.8055 13.9354 15.4633C13.6187 15.1211 13.0844 15.0996 12.7421 15.4163C12.0758 16.0315 11.3476 16.6574 10.574 17.2775C9.91266 17.8128 9.07976 18.0783 8.22625 18.0288C7.37851 17.9835 6.57941 17.6264 5.97665 17.0236C4.72978 15.7775 4.62173 13.7992 5.72513 12.4228C6.3428 11.6525 6.9687 10.9235 7.5839 10.2572C7.90057 9.91493 7.87912 9.38056 7.5369 9.06389C7.19384 8.74722 6.65947 8.76867 6.34363 9.1109C5.70122 9.80609 5.04975 10.5648 4.40733 11.3656C2.76545 13.4157 2.92617 16.3613 4.78246 18.2177Z" fill="white"/>
<path d="M19.7152 8.13611C19.6476 6.87108 19.1157 5.68023 18.2177 4.78215C17.3196 3.8841 16.1288 3.35219 14.8696 3.28455C13.598 3.20868 12.3528 3.60866 11.3664 4.40774C10.5649 5.05016 9.8062 5.70163 9.11093 6.34405C8.76869 6.66072 8.74724 7.19509 9.06392 7.53733C9.38059 7.88039 9.91495 7.90101 10.2572 7.58433C10.9235 6.96913 11.6517 6.34322 12.4253 5.72307C13.0867 5.18786 13.9171 4.9215 14.7731 4.97181C15.6208 5.01716 16.4199 5.37423 17.0227 5.97706C17.6255 6.5799 17.9826 7.37898 18.0279 8.23175C18.0782 9.08115 17.8111 9.91323 17.2734 10.5779C16.6557 11.3481 16.0298 12.0771 15.4146 12.7435C15.0979 13.0857 15.1194 13.6201 15.4616 13.9367C15.6241 14.0868 15.8294 14.161 16.0347 14.161C16.2623 14.161 16.4891 14.0695 16.6549 13.8897C17.2973 13.1945 17.9488 12.4358 18.5887 11.6376C19.3903 10.6471 19.7903 9.40194 19.7152 8.13611Z" fill="white"/>
<path d="M17.6354 18.8297L18.5969 19.7912C18.7618 19.9562 18.9779 20.0386 19.194 20.0386C19.41 20.0386 19.6261 19.9562 19.791 19.7912C20.1209 19.4614 20.1209 18.927 19.791 18.5971L18.8295 17.6356C18.4996 17.3057 17.9652 17.3057 17.6354 17.6356C17.3055 17.9646 17.3055 18.4998 17.6354 18.8297Z" fill="white"/>
<path d="M19.194 14.5027C18.7281 14.5027 18.3496 14.8812 18.3496 15.3471C18.3496 15.8131 18.7281 16.1916 19.194 16.1916H20.1556C20.6215 16.1916 21 15.8131 21 15.3471C21 14.8812 20.6215 14.5027 20.1556 14.5027H19.194Z" fill="white"/>
<path d="M15.3471 18.3495C14.8812 18.3495 14.5027 18.7281 14.5027 19.194V20.1555C14.5027 20.6215 14.8812 21 15.3471 21C15.813 21 16.1916 20.6215 16.1916 20.1555V19.194C16.1916 18.7272 15.8139 18.3495 15.3471 18.3495Z" fill="white"/>
<path d="M5.36469 4.17031L4.40314 3.20875C4.07328 2.87888 3.53889 2.87888 3.20905 3.20875C2.87921 3.53861 2.87919 4.073 3.20905 4.40285L4.1706 5.36441C4.33553 5.52934 4.5516 5.61181 4.76765 5.61181C4.9837 5.61181 5.19977 5.52934 5.36469 5.36441C5.69456 5.03536 5.69456 4.50015 5.36469 4.17031Z" fill="white"/>
<path d="M7.65294 4.65047C8.11886 4.65047 8.49738 4.27194 8.49738 3.80601V2.84445C8.49738 2.37853 8.11886 2 7.65294 2C7.18701 2 6.80849 2.37853 6.80849 2.84445V3.80601C6.80849 4.27276 7.18619 4.65047 7.65294 4.65047Z" fill="white"/>
<path d="M2.84445 8.4973H3.806C4.27192 8.4973 4.65045 8.11878 4.65045 7.65285C4.65045 7.18692 4.27192 6.8084 3.806 6.8084H2.84445C2.37852 6.8084 2 7.18692 2 7.65285C2 8.1196 2.37852 8.4973 2.84445 8.4973Z" fill="white"/>
</svg>
