<svg width="41" height="41" viewBox="0 0 41 41" fill="none" xmlns="http://www.w3.org/2000/svg">
<path d="M31.5475 13.1235H9.22273C8.36831 13.1245 7.54916 13.4538 6.94495 14.0394C6.34073 14.625 6.00098 15.4189 6 16.247V20.7902C6 21.0161 6.09258 21.2328 6.25743 21.3925C6.42228 21.5523 6.64582 21.642 6.87892 21.642H17.2502L20.2532 16.9348C20.4133 16.6839 20.6959 16.5312 21.0003 16.531H32.4264V13.9754C32.4264 13.7495 32.3338 13.5328 32.1689 13.3731C32.0041 13.2133 31.7806 13.1235 31.5475 13.1235Z" fill="white"/>
<path d="M19.3157 21.642H31.5468C31.7799 21.642 32.0035 21.5522 32.1683 21.3925C32.3331 21.2327 32.4257 21.0161 32.4257 20.7901V18.2345H21.4894L19.3157 21.642Z" fill="white"/>
<path d="M26.8006 10H12.1518C11.9939 10 11.8389 10.0413 11.703 10.1194C11.5672 10.1975 11.4557 10.3097 11.3801 10.4441L10.831 11.4198H28.766C28.6392 11.0099 28.3796 10.6505 28.0256 10.3948C27.6717 10.139 27.2421 10.0007 26.8006 10Z" fill="white"/>
<path d="M34.5351 14.8271H34.1836V19.9383H34.5351C34.9236 19.9383 35.2963 19.7888 35.571 19.5225C35.8457 19.2563 36 18.8951 36 18.5186V16.247C36 15.8704 35.8457 15.5093 35.571 15.243C35.2963 14.9767 34.9236 14.8271 34.5351 14.8271Z" fill="white"/>
<path d="M8.1475 30.5302C7.99418 31.1244 8.13217 31.754 8.52144 32.2365C8.9106 32.7191 9.50769 33.0007 10.1397 33H13.5828C14.0406 33.0006 14.4855 32.8526 14.8465 32.5798C15.2075 32.307 15.464 31.925 15.5751 31.4945L17.6722 23.3458H10.001L8.1475 30.5302Z" fill="white"/>
<path d="M18.7515 26.1852H19.396C19.8698 26.1842 20.3288 26.0246 20.6953 25.7334C21.0618 25.4421 21.3132 25.0373 21.407 24.5871L21.6619 23.3457H19.4839L18.7515 26.1852Z" fill="white"/>
</svg>
