<svg width="41" height="41" viewBox="0 0 41 41" fill="none" xmlns="http://www.w3.org/2000/svg">
<path fill-rule="evenodd" clip-rule="evenodd" d="M32.249 14.5298L21.3748 19.1457V22.8536L32.249 27.4706V14.5298ZM21.3748 24.7277L30.9159 28.7779L21.3748 32.8292V24.7277ZM20.8834 34.9128C20.6341 35.032 20.3671 35.0261 20.1166 34.9128L7.56621 29.5844C7.23505 29.4617 7 29.1474 7 28.7781V13.2201C7 12.852 7.23503 12.5377 7.56621 12.4138L20.1546 7.07014C20.3837 6.97315 20.6318 6.98016 20.8454 7.07014L33.4338 12.4138C33.765 12.5365 34 12.8508 34 13.2201V28.7781C34 29.1462 33.765 29.4605 33.4338 29.5844L20.8834 34.9128ZM19.6252 32.8293V24.7278L10.0841 28.7791L19.6252 32.8293ZM19.6252 22.8533V19.1454L8.75096 14.5296V27.4701L19.6252 22.8533ZM20.5 17.6428L10.084 13.2199L20.5 8.79825L30.916 13.2199L20.5 17.6428Z" fill="white"/>
</svg>
