<svg width="23" height="23" viewBox="0 0 23 23" fill="none" xmlns="http://www.w3.org/2000/svg">
<path d="M17.9687 7.6665V9.679C17.5471 9.6215 17.0679 9.59275 16.5312 9.58317V7.6665C16.5312 4.64775 15.6783 2.63525 11.5 2.63525C7.32166 2.63525 6.46874 4.64775 6.46874 7.6665V9.58317C5.93207 9.59275 5.45291 9.6215 5.03124 9.679V7.6665C5.03124 4.88734 5.70207 1.19775 11.5 1.19775C17.2979 1.19775 17.9687 4.88734 17.9687 7.6665Z" fill="white"/>
<path d="M17.9687 9.679C17.5471 9.6215 17.0679 9.59275 16.5312 9.58317H6.46874C5.93207 9.59275 5.45291 9.6215 5.03124 9.679C2.58749 9.97609 1.91666 11.174 1.91666 14.3748V16.2915C1.91666 20.1248 2.87499 21.0832 6.70832 21.0832H16.2917C20.125 21.0832 21.0833 20.1248 21.0833 16.2915V14.3748C21.0833 11.174 20.4125 9.97609 17.9687 9.679ZM8.34707 16.0136C8.16499 16.1861 7.91582 16.2915 7.66666 16.2915C7.54207 16.2915 7.41749 16.2628 7.30249 16.2148C7.17791 16.1669 7.08207 16.0998 6.98624 16.0136C6.81374 15.8315 6.70832 15.5823 6.70832 15.3332C6.70832 15.2086 6.73707 15.084 6.78499 14.969C6.83291 14.854 6.89999 14.7486 6.98624 14.6528C7.08207 14.5665 7.17791 14.4994 7.30249 14.4515C7.65707 14.2982 8.07874 14.3844 8.34707 14.6528C8.43332 14.7486 8.50041 14.854 8.54832 14.969C8.59624 15.084 8.62499 15.2086 8.62499 15.3332C8.62499 15.5823 8.51957 15.8315 8.34707 16.0136ZM12.3817 15.6973C12.3337 15.8123 12.2667 15.9178 12.1804 16.0136C11.9983 16.1861 11.7492 16.2915 11.5 16.2915C11.2412 16.2915 11.0017 16.1861 10.8196 16.0136C10.7333 15.9178 10.6662 15.8123 10.6183 15.6973C10.5704 15.5823 10.5417 15.4578 10.5417 15.3332C10.5417 15.0744 10.6471 14.8348 10.8196 14.6528C11.1742 14.2982 11.8162 14.2982 12.1804 14.6528C12.3529 14.8348 12.4583 15.0744 12.4583 15.3332C12.4583 15.4578 12.4296 15.5823 12.3817 15.6973ZM16.0137 16.0136C15.8317 16.1861 15.5825 16.2915 15.3333 16.2915C15.0842 16.2915 14.835 16.1861 14.6529 16.0136C14.4804 15.8315 14.375 15.5919 14.375 15.3332C14.375 15.0744 14.4804 14.8348 14.6529 14.6528C15.0171 14.2982 15.6592 14.2982 16.0137 14.6528C16.0521 14.7007 16.0904 14.7486 16.1287 14.8061C16.1671 14.854 16.1958 14.9115 16.215 14.969C16.2437 15.0265 16.2629 15.084 16.2725 15.1415C16.2821 15.2086 16.2917 15.2757 16.2917 15.3332C16.2917 15.5823 16.1862 15.8315 16.0137 16.0136Z" fill="white"/>
</svg>
