<svg width="41" height="41" viewBox="0 0 41 41" fill="none" xmlns="http://www.w3.org/2000/svg">
<path d="M20.7199 21.4644C20.7199 23.4699 19.8406 25.2852 18.417 26.5998C17.1501 27.7706 15.4526 28.5434 13.5635 28.6993V31.6999H23.6136V28.2173H22.55C22.1612 28.2173 21.8466 27.9265 21.8466 27.5672V21.7376C21.8466 21.3794 22.1612 21.0875 22.55 21.0875H32.0608C32.4496 21.0875 32.7642 21.3782 32.7642 21.7376V27.5672C32.7642 27.9254 32.4496 28.2173 32.0608 28.2173H30.9973V31.6999H34.2966C34.6854 31.6999 35 31.9906 35 32.3499C35 32.7081 34.6854 33 34.2966 33H8.17143C7.78383 33 7.46799 32.7093 7.46799 32.3499C7.46799 31.9906 7.78261 31.6999 8.17143 31.6999H12.1564V28.6993C10.2662 28.5445 8.56987 27.7717 7.30289 26.5998C5.88048 25.2853 5 23.4699 5 21.4644C5 19.7608 5.37446 19.0609 5.78956 18.2827C6.22383 17.4679 6.7131 16.5536 6.7131 13.6802C6.7131 12.1114 7.40098 10.6918 8.51355 9.66385C9.62611 8.63569 11.1622 8 12.8596 8C14.5572 8 16.0934 8.63569 17.2057 9.66385C18.3183 10.692 19.0061 12.1115 19.0061 13.6802C19.0061 16.5546 19.4954 17.469 19.9297 18.2827C20.3448 19.0599 20.7192 19.7608 20.7192 21.4644H20.7199ZM25.0207 31.6996H29.5931V28.217H25.0207V31.6996ZM26.6034 26.9171V22.3876H23.2536V26.9171H26.6034ZM28.009 22.3876V26.9171H31.3589V22.3876H28.009ZM12.1566 22.0073L10.0786 20.0869C9.80348 19.8327 9.80348 19.4225 10.0786 19.1682C10.3538 18.914 10.7976 18.914 11.0728 19.1682L12.1566 20.1699V14.2431C12.1566 13.8849 12.4713 13.5931 12.8601 13.5931C13.2489 13.5931 13.5635 13.8838 13.5635 14.2431V16.798L14.6474 15.7964C14.9225 15.5421 15.3664 15.5421 15.6415 15.7964C15.9167 16.0507 15.9167 16.4609 15.6415 16.7151L13.5635 18.6355V27.3958C15.0649 27.2455 16.4119 26.6197 17.423 25.6844C18.5894 24.6054 19.3131 23.114 19.3131 21.4668C19.3131 20.0595 19.0093 19.4901 18.6719 18.8589C18.1671 17.9136 17.6 16.8523 17.6 13.6827C17.6 12.4732 17.0688 11.3776 16.2123 10.585C15.3545 9.79234 14.1702 9.3026 12.8603 9.3026C11.5516 9.3026 10.366 9.79237 9.50836 10.585C8.65069 11.3777 8.12065 12.4722 8.12065 13.6827C8.12065 16.8522 7.55359 17.9147 7.04876 18.8589C6.71139 19.4901 6.40752 20.0595 6.40752 21.4668C6.40752 23.1141 7.1301 24.6055 8.2977 25.6844C9.30978 26.6197 10.6556 27.2454 12.1571 27.3958L12.1566 22.0073Z" fill="white"/>
</svg>
