<svg width="41" height="41" viewBox="0 0 41 41" fill="none" xmlns="http://www.w3.org/2000/svg">
<path d="M24.1637 8.00141V8.00279C20.8506 8.00279 17.662 9.30008 15.2708 11.623C15.0667 11.8212 15.0599 12.1511 15.2557 12.3576C15.3502 12.4588 15.4817 12.517 15.6187 12.5197C15.7556 12.5225 15.8885 12.4698 15.9871 12.3742C18.0607 10.359 20.7865 9.185 23.6462 9.05748V10.3825C23.6462 10.5211 23.701 10.6528 23.7982 10.7498C23.8954 10.8482 24.0269 10.9023 24.1639 10.9023C24.4474 10.9009 24.6775 10.6694 24.6789 10.3825V9.05889C27.5537 9.18363 30.1616 10.3451 32.1434 12.1857L31.2148 13.1254H31.2134C31.0134 13.3278 31.0134 13.6577 31.2134 13.86C31.3106 13.9584 31.4421 14.0139 31.5791 14.0139C31.7161 14.0139 31.8489 13.9584 31.9448 13.86L32.8707 12.9231C34.6868 14.93 35.8332 17.5676 35.9564 20.4768H34.6512V20.4782C34.5142 20.4796 34.3841 20.535 34.2868 20.632C34.191 20.7304 34.1375 20.8635 34.1375 21.0021C34.1375 21.289 34.3676 21.5218 34.6511 21.5233H35.9564C35.8331 24.4339 34.6881 27.0744 32.872 29.0812L31.9461 28.1443H31.9448C31.8489 28.0459 31.7174 27.9905 31.5791 27.9905C31.4421 27.9905 31.3106 28.0459 31.2134 28.1443C31.0134 28.348 31.0134 28.6779 31.2134 28.8803L32.142 29.8186C30.1601 31.6592 27.5537 32.822 24.6775 32.9468V31.6232H24.6789C24.6789 31.4846 24.6255 31.3515 24.5282 31.2531C24.4323 31.1547 24.3009 31.0992 24.1639 31.0992C24.0255 31.0992 23.8941 31.1547 23.7968 31.2531C23.6996 31.3515 23.6448 31.4845 23.6461 31.6232V32.9468C20.7864 32.8193 18.0607 31.6453 15.9871 29.6315C15.7816 29.4333 15.457 29.4402 15.2598 29.6467C15.064 29.8546 15.0708 30.1845 15.2749 30.3827C17.6608 32.7001 20.8369 33.9933 24.1418 33.9986C24.1501 34 24.1569 34 24.1638 34C24.1692 34 24.1747 34 24.1802 33.9986C27.7043 33.9945 30.8982 32.5489 33.2158 30.2134C33.224 30.2079 33.2322 30.2009 33.2391 30.194C33.2528 30.1802 33.2665 30.1649 33.2788 30.1497C35.5784 27.8004 37 24.5684 37 21.0021V20.9841V20.9785C36.9932 17.4233 35.5756 14.2008 33.2827 11.8572C33.269 11.8392 33.2553 11.824 33.2388 11.8073C33.2251 11.7949 33.2114 11.781 33.1964 11.7685C30.8762 9.44003 27.6849 8 24.1636 8L24.1637 8.00141ZM12.7628 13.565V13.5636C12.6258 13.565 12.4957 13.6204 12.3984 13.7188C12.3025 13.8172 12.2491 13.9503 12.2491 14.0875C12.2505 14.3744 12.4792 14.6072 12.7627 14.6072H18.5947C18.8782 14.6072 19.1069 14.3744 19.1083 14.0875C19.1083 13.9503 19.0549 13.8172 18.959 13.7188C18.8617 13.6204 18.7316 13.565 18.5946 13.5636L12.7628 13.565ZM29.5352 15.0397C29.3983 15.0397 29.2668 15.0951 29.1695 15.1935L25.2236 19.1852L25.2222 19.1838C24.4237 18.7085 23.3691 18.8165 22.6857 19.5096C21.8762 20.3301 21.8762 21.6759 22.6857 22.4964C23.4951 23.3169 24.825 23.3169 25.6359 22.4964C26.3207 21.8034 26.4261 20.7348 25.9536 19.9254L29.8981 15.9294H29.8995C30.0995 15.7257 30.0995 15.3972 29.8995 15.1934C29.8036 15.095 29.6722 15.0397 29.5352 15.0397ZM8.6401 17.023C8.5045 17.023 8.37302 17.0771 8.27576 17.1741C8.17852 17.2725 8.12374 17.4042 8.12236 17.5428C8.12236 17.6828 8.17715 17.8159 8.27439 17.9143C8.37163 18.0127 8.50312 18.0681 8.64009 18.0667H17.5632C17.7001 18.0667 17.8302 18.0113 17.9275 17.9129C18.0234 17.8145 18.0768 17.6814 18.0768 17.5428C18.0754 17.2559 17.8467 17.0245 17.5632 17.0231L8.6401 17.023ZM24.1623 19.9323C24.4307 19.9323 24.6992 20.0376 24.9074 20.2483C25.3237 20.6696 25.3237 21.3363 24.9074 21.7576C24.491 22.179 23.8322 22.179 23.4158 21.7576C22.9995 21.3363 22.9995 20.6696 23.4158 20.2483C23.624 20.0376 23.8938 19.9323 24.1623 19.9323ZM4.51499 20.4784C4.37803 20.4784 4.24655 20.5338 4.14929 20.6322C4.05341 20.7306 4 20.8637 4 21.0023C4 21.2892 4.2301 21.522 4.515 21.5234H16.5309C16.8158 21.5221 17.0459 21.2892 17.0459 21.0023C17.0459 20.8637 16.9925 20.7306 16.8966 20.6322C16.7994 20.5338 16.6679 20.4784 16.5309 20.4784H4.51499ZM8.64045 23.9378C8.50349 23.9378 8.372 23.9919 8.27611 24.0889C8.17887 24.1873 8.12409 24.3204 8.12272 24.459C8.12272 24.5976 8.1775 24.7306 8.27474 24.8291C8.37199 24.9275 8.50347 24.9829 8.64044 24.9829H17.5635C17.7005 24.9815 17.8306 24.9261 17.9278 24.8277C18.0237 24.7293 18.0771 24.5976 18.0771 24.459C18.0771 24.1721 17.847 23.9393 17.5635 23.9378L8.64045 23.9378ZM12.7631 27.3946C12.6261 27.3946 12.496 27.45 12.3988 27.5484C12.3029 27.6468 12.2495 27.7799 12.2495 27.9171C12.2508 28.204 12.4796 28.4368 12.7631 28.4382H18.595C18.8785 28.4369 19.1073 28.204 19.1086 27.9171C19.1086 27.7799 19.0552 27.6468 18.9593 27.5484C18.8621 27.45 18.732 27.3946 18.595 27.3946H12.7631Z" fill="white"/>
</svg>
