<svg width="23" height="23" viewBox="0 0 23 23" fill="none" xmlns="http://www.w3.org/2000/svg">
<path d="M20.1921 5.01192C18.6492 4.85859 17.1063 4.74359 15.5538 4.65734V4.64775L15.3429 3.40192C15.1992 2.52025 14.9883 1.19775 12.7458 1.19775H10.235C8.00209 1.19775 7.79126 2.46275 7.63792 3.39234L7.43668 4.619C6.54543 4.6765 5.65417 4.734 4.76292 4.82025L2.80793 5.01192C2.40543 5.05025 2.11793 5.40484 2.15626 5.79775C2.19459 6.19067 2.53959 6.47817 2.94209 6.43984L4.89709 6.24817C9.91876 5.74984 14.9788 5.9415 20.0579 6.44942C20.0867 6.44942 20.1058 6.44942 20.1346 6.44942C20.4988 6.44942 20.815 6.1715 20.8533 5.79775C20.8821 5.40484 20.5946 5.05025 20.1921 5.01192Z" fill="white"/>
<path d="M18.4288 7.80067C18.1988 7.56109 17.8825 7.42692 17.5567 7.42692H5.44334C5.11751 7.42692 4.79168 7.56109 4.57126 7.80067C4.35084 8.04025 4.22626 8.36609 4.24543 8.7015L4.83959 18.534C4.94501 19.9907 5.07918 21.8115 8.42376 21.8115H14.5763C17.9208 21.8115 18.055 20.0003 18.1604 18.534L18.7546 8.71109C18.7738 8.36609 18.6492 8.04025 18.4288 7.80067ZM13.0908 17.0103H9.89959C9.50668 17.0103 9.18084 16.6844 9.18084 16.2915C9.18084 15.8986 9.50668 15.5728 9.89959 15.5728H13.0908C13.4838 15.5728 13.8096 15.8986 13.8096 16.2915C13.8096 16.6844 13.4838 17.0103 13.0908 17.0103ZM13.8958 13.1769H9.10418C8.71126 13.1769 8.38543 12.8511 8.38543 12.4582C8.38543 12.0653 8.71126 11.7394 9.10418 11.7394H13.8958C14.2888 11.7394 14.6146 12.0653 14.6146 12.4582C14.6146 12.8511 14.2888 13.1769 13.8958 13.1769Z" fill="white"/>
</svg>
